name newpol_modifiedModel\angles_triclong4.mot
datacolumns 15
datarows 33
range 0.000000 0.012103
endheader
time  THx THy THz SCy SCz SCx ACy ACz ACx GHy GHz GHyy ELx PSy
0.000000	0.000000	0.000000	0.000000	-51.015040	19.430206	31.527457	58.400287	-3.458009	4.321443	-121.843317	61.788348	162.909709	1.000000	0.000000	
0.000378	0.000000	0.000000	0.000000	-49.650753	18.847935	27.464978	58.618936	-1.098443	5.315424	-118.480993	56.272940	159.293881	1.000000	0.000000	
0.000756	0.000000	0.000000	0.000000	-53.009797	20.572499	35.006150	59.685836	-2.592150	6.998765	-109.477030	71.348542	145.400718	1.000000	0.000000	
0.001135	0.000000	0.000000	0.000000	-53.965613	21.103677	37.474235	60.128258	-2.990342	7.776488	-104.417191	75.312376	141.621446	1.000000	0.000000	
0.001513	0.000000	0.000000	0.000000	-51.173064	19.646224	34.062180	59.148390	-4.374057	4.567548	-113.332360	63.275928	146.124226	1.000000	0.000000	
0.001891	0.000000	0.000000	0.000000	-49.601910	18.829065	27.438495	58.635477	-1.100032	5.306715	-118.240332	56.090158	149.081580	1.000000	0.000000	
0.002269	0.000000	0.000000	0.000000	-48.620411	18.395192	26.398350	58.658674	-1.119853	4.896922	-116.735025	52.076577	153.117541	1.000000	0.000000	
0.002648	0.000000	0.000000	0.000000	-28.779629	10.156269	12.333615	60.954609	-3.139552	-2.679088	52.101159	14.993186	-24.353266	1.000000	0.000000	
0.003026	0.000000	0.000000	0.000000	-30.318517	10.866416	14.636506	61.313983	-3.504792	-2.132022	41.709879	15.423581	-14.181948	1.000000	0.000000	
0.003404	0.000000	0.000000	0.000000	-30.161472	10.730982	13.291046	60.874442	-2.982306	-2.113408	41.388159	13.316908	-12.763012	1.000000	0.000000	
0.003782	0.000000	0.000000	0.000000	-35.559407	12.600578	14.840158	57.994073	-3.379241	-1.679170	-110.775093	7.087731	121.917307	1.000000	0.000000	
0.004160	0.000000	0.000000	0.000000	-34.825491	12.418035	14.140329	58.883971	-2.350536	-0.933761	-71.382271	6.055363	81.724295	1.000000	0.000000	
0.004539	0.000000	0.000000	0.000000	-38.752546	14.045206	16.314366	58.501702	-1.474723	0.797079	-102.151773	16.298326	113.517186	1.000000	0.000000	
0.004917	0.000000	0.000000	0.000000	-44.326129	16.476604	23.623414	58.502263	-2.862056	2.022043	-111.876594	35.212576	122.479578	1.000000	0.000000	
0.005295	0.000000	0.000000	0.000000	-37.940935	13.659708	15.344984	58.274921	-1.597297	0.334240	-105.292277	13.701699	113.483719	1.000000	0.000000	
0.005673	0.000000	0.000000	0.000000	-33.241986	11.733930	13.634321	58.812376	-3.236117	-2.033102	-40.179534	2.957481	44.342704	1.000000	0.000000	
0.006051	0.000000	0.000000	0.000000	-35.855690	12.797916	13.738883	58.497535	-1.658345	-0.324621	-94.303715	8.084893	102.228298	1.000000	0.000000	
0.006430	0.000000	0.000000	0.000000	-42.281325	15.560834	20.956055	58.380537	-2.551924	1.359971	-110.270342	27.741990	118.617217	1.000000	0.000000	
0.006808	0.000000	0.000000	0.000000	-31.370177	10.727900	9.821665	57.430451	-3.077930	-3.018056	137.575679	4.435892	-146.343639	1.000000	0.000000	
0.007186	0.000000	0.000000	0.000000	-29.999107	10.344089	8.217164	58.790430	-1.211150	-1.913416	66.521770	4.971313	-78.974314	1.000000	0.000000	
0.007564	0.000000	0.000000	0.000000	-37.196048	13.238764	16.427996	57.559890	-3.898966	-1.647648	-120.816977	11.265159	112.051832	1.000000	0.000000	
0.007943	0.000000	0.000000	0.000000	-48.221992	18.255360	28.018416	58.843061	-2.594290	4.000071	-113.842071	50.677381	111.821202	1.000000	0.000000	
0.008321	0.000000	0.000000	0.000000	-53.610207	20.915805	38.309579	59.964473	-4.286246	6.700643	-105.716091	73.852699	114.011669	1.000000	0.000000	
0.008699	0.000000	0.000000	0.000000	-50.653806	19.477378	33.667564	59.515781	-4.062041	4.854378	-108.728086	61.216745	111.978986	1.000000	0.000000	
0.009077	0.000000	0.000000	0.000000	-44.345777	16.506962	21.931622	58.668256	-1.233018	3.109210	-110.309876	35.414612	106.419929	1.000000	0.000000	
0.009455	0.000000	0.000000	0.000000	-36.575167	13.093637	14.282156	58.412675	-1.641119	-0.102924	-99.146467	9.940651	90.194206	1.000000	0.000000	
0.009834	0.000000	0.000000	0.000000	-33.715613	11.868615	13.287406	58.373524	-3.087924	-1.959981	-87.516328	2.800350	76.415269	1.000000	0.000000	
0.010212	0.000000	0.000000	0.000000	-40.060360	14.525770	16.932311	57.963664	-1.569851	0.941245	-113.815128	19.918089	106.527123	1.000000	0.000000	
0.010590	0.000000	0.000000	0.000000	-56.224022	22.286641	44.545574	60.604628	-5.567862	8.387649	-96.552036	84.051834	120.272222	1.000000	0.000000	
0.010968	0.000000	0.000000	0.000000	-34.027134	11.851157	11.286048	57.408690	-2.318528	-1.728472	-155.756290	4.586049	145.510791	1.000000	0.000000	
0.011346	0.000000	0.000000	0.000000	-40.734801	14.700940	18.185549	57.193559	-2.968205	-0.072589	-125.970931	21.295180	119.031241	1.000000	0.000000	
0.011725	0.000000	0.000000	0.000000	-48.727697	18.572620	31.016480	59.309972	-3.983178	3.819920	-108.734168	53.112678	109.363019	1.000000	0.000000	
0.012103	0.000000	0.000000	0.000000	-39.367379	14.290716	16.727996	58.373549	-1.471532	0.955499	-105.780244	18.088648	94.836166	1.000000	0.000000	
